<?xml version="1.0" standalone="no"?>
<!DOCTYPE svg PUBLIC "-//W3C//DTD SVG 20010904//EN"
 "http://www.w3.org/TR/2001/REC-SVG-20010904/DTD/svg10.dtd">
<svg version="1.0" xmlns="http://www.w3.org/2000/svg"
 width="611.000000pt" height="611.000000pt" viewBox="0 0 611.000000 611.000000"
 preserveAspectRatio="xMidYMid meet">
<metadata>
Created by potrace 1.14, written by Peter Selinger 2001-2017
</metadata>
<g transform="translate(0.000000,611.000000) scale(0.100000,-0.100000)"
fill="#000000" stroke="none">
<path d="M3086 5003 c-1 -1 -20 -5 -41 -9 -134 -21 -344 -130 -543 -282 -75
-57 -82 -60 -153 -67 -63 -6 -216 -33 -284 -51 -11 -3 -24 -6 -30 -7 -49 -11
-284 -146 -293 -169 -2 -4 -10 -8 -18 -8 -8 0 -14 -4 -14 -8 0 -18 -147 -94
-247 -128 -250 -84 -307 -138 -387 -361 -30 -84 -87 -293 -79 -293 3 0 0 -6
-6 -14 -9 -11 -9 -16 1 -22 7 -4 10 -4 6 1 -4 4 -3 14 3 22 6 7 9 13 5 13 -6
0 38 133 54 162 6 10 10 24 10 33 0 8 24 66 53 128 73 153 137 212 267 247
128 34 247 76 271 97 8 7 18 13 22 13 3 0 58 34 122 75 63 41 120 75 125 75 6
0 10 4 10 10 0 5 3 9 8 8 4 -1 24 6 45 15 36 16 97 34 142 43 60 12 146 25
190 29 117 10 163 14 215 19 61 6 169 17 215 22 198 20 367 20 485 0 14 -3 45
-7 70 -10 96 -13 184 -32 187 -42 2 -6 -5 -15 -16 -20 -66 -31 -180 -161 -233
-266 -24 -46 -25 -47 -44 -30 -130 117 -255 142 -457 92 -102 -26 -149 -43
-256 -92 -90 -41 -204 -107 -209 -120 -2 -4 -8 -6 -13 -2 -5 3 -9 0 -9 -6 0
-8 9 -10 28 -5 15 4 36 9 47 11 32 6 210 58 330 97 137 44 158 48 268 52 81 3
116 -2 172 -25 11 -4 36 -14 55 -21 19 -7 39 -15 43 -19 5 -4 1 -45 -9 -90
-18 -93 -15 -207 9 -322 1 -6 -27 -21 -63 -34 -114 -42 -172 -50 -350 -48
-202 2 -236 11 -437 115 -95 49 -173 87 -173 84 0 -8 153 -155 161 -155 3 0
17 -9 30 -21 35 -30 98 -66 149 -84 109 -39 391 -39 500 0 50 18 131 63 142
79 4 6 8 8 8 4 0 -5 10 2 22 14 17 17 23 19 26 7 13 -46 71 -149 112 -200 43
-54 148 -149 164 -149 4 0 14 -6 22 -14 23 -24 167 -75 245 -87 68 -10 175 -7
237 7 56 13 172 57 172 65 0 12 -14 11 -25 0 -6 -5 -46 -19 -89 -30 -115 -30
-203 -29 -351 4 -5 1 -22 7 -37 13 -16 7 -40 17 -54 22 -62 24 -173 117 -238
199 -66 84 -113 231 -113 355 -1 298 193 552 472 617 60 14 232 20 260 8 14
-5 1 -8 -40 -8 -33 -1 -85 -8 -115 -16 -30 -8 -64 -17 -75 -20 -27 -6 -89 -38
-93 -47 -2 -5 -8 -8 -13 -8 -13 0 -64 -38 -108 -80 -80 -78 -139 -182 -166
-295 -14 -60 -12 -202 4 -268 13 -57 66 -170 95 -206 111 -137 239 -216 386
-237 101 -14 198 -4 283 28 28 11 60 22 70 25 9 3 17 9 17 13 0 4 -30 -4 -67
-17 -76 -28 -198 -37 -286 -21 -48 9 -165 59 -211 90 -30 21 -100 90 -123 123
-124 178 -134 398 -27 590 28 49 125 155 143 155 6 0 11 5 11 10 0 6 6 10 14
10 8 0 16 4 18 8 5 13 129 61 174 67 192 26 350 -24 479 -151 128 -127 174
-310 128 -508 -17 -74 -72 -192 -106 -228 -14 -15 -38 -45 -52 -65 -15 -21
-18 -28 -7 -16 11 12 21 20 23 18 6 -5 106 125 128 165 10 19 22 35 27 37 12
4 127 -107 184 -177 25 -30 47 -57 50 -60 3 -3 28 -34 55 -70 110 -143 213
-247 304 -305 76 -47 241 -131 241 -121 0 2 -37 25 -82 52 -191 111 -244 163
-428 415 -74 102 -170 220 -214 265 l-82 80 12 57 c17 87 10 221 -16 297 -30
88 -67 166 -104 220 -31 46 -152 170 -167 170 -4 0 -14 7 -22 15 -26 25 -169
83 -246 99 -41 8 -77 19 -80 23 -7 10 -139 103 -146 103 -3 0 -28 15 -57 34
-90 57 -279 144 -373 171 -75 22 -239 47 -249 38z m114 -97 c77 -13 98 -18
173 -42 42 -13 101 -39 130 -58 57 -36 163 -95 242 -135 l50 -25 -35 -8 c-19
-4 -47 -10 -62 -13 -14 -3 -36 -9 -49 -13 -15 -6 -38 -3 -70 8 -48 18 -205 50
-269 56 -19 2 -57 7 -85 11 -65 10 -360 10 -450 0 -100 -11 -131 -15 -210 -21
l-70 -6 136 68 c222 110 311 148 403 172 68 17 92 18 166 6z"/>
<path d="M2825 4082 c-54 -26 -113 -49 -140 -54 -5 -1 -39 -12 -75 -25 -36
-14 -73 -27 -82 -30 -29 -9 -21 -18 40 -46 223 -103 337 -81 426 83 15 27 25
50 23 50 -2 0 -34 -29 -71 -64 -37 -36 -83 -70 -103 -77 -38 -12 -128 -5 -203
16 -8 2 -31 7 -50 10 -40 7 -52 15 -24 16 66 2 193 39 269 77 58 29 81 35 137
35 104 2 82 20 -37 33 -41 4 -60 0 -110 -24z"/>
<path d="M1010 3518 c5 -24 11 -61 14 -83 12 -77 47 -171 77 -208 35 -42 94
-75 190 -107 78 -25 73 -23 234 -101 204 -98 295 -139 365 -166 69 -27 68 -26
174 -43 37 -6 85 -19 106 -30 39 -20 120 -106 120 -127 0 -6 4 -13 8 -15 5 -1
33 -41 63 -88 58 -92 66 -103 119 -163 40 -45 99 -76 148 -77 64 0 102 -28
257 -187 85 -86 157 -155 160 -152 5 6 -74 122 -87 127 -4 2 -8 10 -8 17 0 7
-3 15 -7 17 -5 2 -33 35 -64 73 -116 144 -143 163 -251 180 -23 4 -49 18 -68
37 -36 35 -110 142 -110 157 0 6 -4 11 -10 11 -5 0 -10 7 -10 15 0 8 -4 15
-10 15 -5 0 -10 5 -10 11 0 15 -79 125 -125 172 -44 47 -123 84 -190 92 -69 7
-143 25 -174 41 -14 8 -29 14 -33 14 -5 0 -51 20 -104 45 -52 25 -97 45 -99
45 -1 0 -41 17 -87 39 -115 53 -204 87 -263 101 -114 28 -174 54 -203 89 -23
29 -60 105 -72 151 -7 25 -16 54 -20 65 -5 11 -11 32 -14 48 -10 44 -24 31
-16 -15z"/>
<path d="M1198 3515 c-1 -2 -25 -6 -52 -9 -67 -7 -70 -16 -5 -16 202 -2 297
-17 407 -66 17 -8 47 -20 65 -28 141 -62 256 -101 332 -111 11 -2 34 -6 50
-10 49 -11 435 -14 495 -4 30 5 69 11 85 13 17 3 46 7 65 10 142 23 314 22
430 -4 25 -5 56 -12 70 -14 36 -7 55 -12 150 -36 47 -12 94 -24 105 -26 11 -2
81 -19 155 -39 344 -88 401 -102 393 -95 -9 9 -191 83 -263 106 -25 9 -58 21
-75 29 -25 11 -103 36 -420 135 -112 35 -224 49 -370 45 -82 -1 -161 -6 -175
-9 -26 -6 -61 -12 -145 -24 -67 -9 -424 -9 -505 1 -93 11 -94 12 -315 85
l-200 66 -137 2 c-75 2 -138 1 -140 -1z"/>
<path d="M4190 3380 c-9 -6 -10 -10 -3 -10 6 0 15 5 18 10 8 12 4 12 -15 0z"/>
<path d="M735 1766 c-93 -30 -157 -83 -203 -171 -23 -43 -26 -62 -26 -135 1
-97 2 -100 33 -160 55 -107 169 -172 296 -170 56 1 137 27 173 55 88 68 98 91
98 215 l-1 105 -157 1 -156 1 -4 -63 c-2 -51 0 -64 12 -65 8 -1 46 -2 84 -3
77 -1 93 -17 52 -54 -65 -58 -182 -52 -240 12 -27 31 -46 80 -46 123 0 82 77
166 154 169 67 3 91 -5 135 -42 l40 -35 66 34 67 33 -34 41 c-80 99 -227 146
-343 109z"/>
<path d="M1201 1706 c0 -41 5 -66 12 -68 10 -3 369 -2 419 1 14 1 17 12 17 66
l-1 65 -223 0 -224 0 0 -64z"/>
<path d="M1741 1706 c0 -42 4 -65 12 -68 10 -3 331 -2 415 1 20 1 22 6 22 66
l0 65 -224 0 -224 0 -1 -64z"/>
<path d="M2283 1455 l0 -315 74 0 c51 0 73 4 74 13 0 6 1 46 1 87 0 41 5 83 9
92 5 10 37 50 72 91 34 41 78 94 99 118 20 24 46 55 58 69 12 14 39 45 59 70
20 25 39 47 44 48 4 2 12 12 17 23 10 18 6 19 -79 19 l-90 0 -68 -86 c-37 -47
-80 -100 -95 -117 l-27 -32 0 105 c0 58 0 111 0 118 -1 8 -23 12 -75 12 l-73
0 0 -315z"/>
<path d="M2920 1765 c0 -2 52 -83 115 -179 l115 -175 0 -136 0 -135 75 0 75 0
0 136 c0 134 0 136 30 179 17 24 30 48 30 53 0 6 4 12 8 14 7 2 103 149 156
236 5 9 -12 12 -78 12 l-84 0 -68 -111 c-57 -94 -70 -109 -79 -94 -5 9 -30 47
-53 83 -24 37 -50 79 -58 95 -14 26 -17 27 -99 27 -47 0 -85 -2 -85 -5z"/>
<path d="M3629 1748 c0 -13 -1 -153 -1 -313 l-1 -290 75 -3 76 -3 -2 95 c-1
53 1 97 4 98 3 2 21 23 40 48 19 25 42 52 51 60 24 22 269 318 269 325 0 3
-39 5 -86 5 -95 0 -91 2 -153 -80 -14 -19 -28 -37 -31 -40 -3 -3 -24 -29 -47
-57 -22 -29 -43 -47 -45 -40 -2 6 -3 58 -2 115 l1 102 -74 0 c-69 0 -73 -1
-74 -22z"/>
<path d="M4258 1705 c-2 -52 0 -65 12 -66 22 -1 380 -1 412 0 26 1 27 2 25 64
l-2 62 -222 3 -221 2 -4 -65z"/>
<path d="M4803 1650 c1 -66 0 -120 -3 -120 -3 0 -4 -33 -2 -72 2 -61 3 -184 1
-223 0 -5 0 -29 2 -52 l2 -43 74 0 73 0 0 95 c0 92 1 96 30 127 17 17 30 34
30 37 0 3 15 22 33 41 18 19 81 94 141 165 60 72 116 138 124 148 14 16 10 17
-79 17 l-94 0 -22 -33 c-13 -17 -36 -47 -53 -65 -16 -19 -46 -56 -67 -84 l-38
-49 -3 115 -3 116 -74 0 -75 0 3 -120z"/>
<path d="M5439 1768 c-1 -2 -3 -144 -4 -315 l-1 -313 73 0 c63 0 73 2 74 18 0
9 1 150 2 312 l1 295 -72 3 c-40 2 -73 2 -73 0z"/>
<path d="M1200 1456 c0 -42 4 -65 13 -68 6 -2 107 -4 222 -3 l210 1 3 66 3 67
-226 1 -225 1 0 -65z"/>
<path d="M1744 1506 c-3 -7 -4 -38 -2 -67 l3 -54 220 0 220 0 3 67 3 67 -221
0 c-177 1 -222 -2 -226 -13z"/>
<path d="M4260 1453 l0 -68 222 0 223 0 0 65 0 65 -222 3 -223 2 0 -67z"/>
<path d="M2512 1309 c7 -9 38 -51 68 -93 l55 -76 93 0 93 0 -28 38 c-15 20
-30 39 -33 42 -3 3 -25 28 -48 57 l-43 52 -85 -1 c-79 -1 -84 -2 -72 -19z"/>
<path d="M3867 1291 c15 -20 38 -47 50 -61 13 -14 23 -28 23 -31 0 -3 10 -18
23 -32 21 -25 27 -27 110 -26 48 0 87 2 87 3 0 3 -32 45 -88 115 -56 71 -54
70 -146 69 l-86 -1 27 -36z"/>
<path d="M5027 1324 c-3 -3 24 -46 61 -95 l67 -89 87 0 c49 0 88 3 88 6 0 6
-52 75 -75 100 -5 6 -23 27 -38 47 -27 35 -29 35 -106 36 -43 0 -81 -2 -84 -5z"/>
<path d="M1205 1270 c-1 -3 -3 -33 -4 -67 l-1 -63 224 0 224 0 -1 67 -2 68
-218 0 c-121 0 -220 -2 -222 -5z"/>
<path d="M1758 1272 c-12 -2 -16 -17 -16 -67 l0 -65 224 0 225 0 -3 67 -3 68
-206 0 c-113 0 -212 -1 -221 -3z"/>
<path d="M4260 1208 l0 -68 224 0 224 0 -2 67 -1 67 -223 1 -222 0 0 -67z"/>
</g>
</svg>
